<svg version="1.1" id="Content" xmlns:x="&ns_extend;" xmlns:i="&ns_ai;" xmlns:graph="&ns_graphs;"
	 xmlns="http://www.w3.org/2000/svg" xmlns:xlink="http://www.w3.org/1999/xlink" x="0px" y="0px" viewBox="0 0 390.4 414.3"
	 enable-background="new 0 0 390.4 414.3" xml:space="preserve">
<metadata>
	<sfw  xmlns="&ns_sfw;">
		<slices></slices>
		<sliceSourceBounds  bottomLeftOrigin="true" height="414.3" width="390.4" x="285.4" y="112.2"></sliceSourceBounds>
	</sfw>
</metadata>
<path fill="#FF0000" d="M357.5,240.3c-5.6-5.6-9.3-13.1-9.3-20.5v-26.2c0-7.5,3.7-15.9,9.3-20.5l28.1-25.2
	c4.7-4.7,6.5-11.2,2.8-17.7l-29.9-52.5c-3.7-5.6-10.3-8.4-16.8-6.5L306,82.3c-7.5,2.8-15.9,1.9-22.4-2.8l-22.4-13.1
	c-6.5-3.7-12.1-10.3-13.1-18.7l-8.4-36.5c-0.9-6.5-6.5-11.2-14-11.2h-60.8c-6.5,0-12.1,4.7-14,11.2l-8.4,36.5
	c-1.9,7.5-6.5,14.9-13.1,18.7l-22.4,13.1c-6.5,3.7-14.9,4.7-22.4,2.8L48.8,71.1c-6.5-1.9-13.1,0.9-16.8,6.5L2,130
	c-3.7,5.6-1.9,13.1,2.8,17.7L32.8,173c5.6,5.6,9.3,13.1,9.3,20.5v26.2c0,7.5-2.8,15.9-9.3,20.5L4.8,265.5
	c-4.7,4.7-6.5,11.2-2.8,17.7l30.1,52.5c3.7,5.6,10.3,8.4,16.8,6.5L84.5,331c7.5-2.8,15.9-1.9,22.4,2.8l22.4,13.1
	c6.5,3.7,12.1,10.3,13.1,18.7l8.4,37.4c0.9,6.5,6.5,11.2,14,11.2h60.7c6.5,0,12.1-4.7,14-11.2l8.4-37.4c1.9-7.5,6.5-14,13.1-18.7
	l22.4-13.1c6.5-3.7,14.9-4.7,22.4-2.8l35.6,11.2c6.5,1.9,13.1-0.9,16.8-6.5l29.9-52.4c3.7-5.6,1.9-13.1-2.8-17.7L357.5,240.3z"/>
<path fill="#FFFFFF" d="M152.9,268.6l107.3-61.5l-107.3-61.5C152.9,145.7,152.9,268.6,152.9,268.6z"/>
</svg>
